<svg width="17" height="17" viewBox="0 0 17 17" fill="none" xmlns="http://www.w3.org/2000/svg">
<path d="M6.37435 14.1666H4.24935C3.4979 14.1666 2.77723 13.8681 2.24588 13.3368C1.71453 12.8054 1.41602 12.0847 1.41602 11.3333V4.95829C1.41602 4.20685 1.71453 3.48618 2.24588 2.95482C2.77723 2.42347 3.4979 2.12496 4.24935 2.12496H12.041C12.7925 2.12496 13.5131 2.42347 14.0445 2.95482C14.5758 3.48618 14.8743 4.20685 14.8743 4.95829V7.08329M5.66602 1.41663V2.83329M10.6243 1.41663V2.83329M1.41602 5.66663H14.8743M13.1035 11.0804L12.041 12.1429" stroke="black" stroke-width="1.41667" stroke-linecap="round" stroke-linejoin="round"/>
<path d="M12.0407 15.5833C13.9967 15.5833 15.5824 13.9977 15.5824 12.0417C15.5824 10.0857 13.9967 8.5 12.0407 8.5C10.0847 8.5 8.49902 10.0857 8.49902 12.0417C8.49902 13.9977 10.0847 15.5833 12.0407 15.5833Z" stroke="black" stroke-width="1.41667" stroke-linecap="round" stroke-linejoin="round"/>
</svg>
