<svg width="27" height="24" viewBox="0 0 27 24" fill="none" xmlns="http://www.w3.org/2000/svg">
<path d="M9.73704 4.3501C9.73704 3.33692 10.1335 2.36524 10.8391 1.64882C11.5447 0.93239 12.5017 0.529907 13.4996 0.529907C14.4975 0.529907 15.4546 0.93239 16.1602 1.64882C16.8658 2.36524 17.2622 3.33692 17.2622 4.3501C17.2622 5.36328 16.8658 6.33496 16.1602 7.05138C15.4546 7.76781 14.4975 8.17029 13.4996 8.17029C12.5017 8.17029 11.5447 7.76781 10.8391 7.05138C10.1335 6.33496 9.73704 5.36328 9.73704 4.3501ZM13.4996 2.44192C13.2528 2.44192 13.0084 2.49127 12.7804 2.58717C12.5524 2.68306 12.3452 2.82362 12.1707 3.00081C11.9962 3.178 11.8577 3.38836 11.7633 3.61987C11.6688 3.85138 11.6202 4.09951 11.6202 4.3501C11.6202 4.60069 11.6688 4.84882 11.7633 5.08033C11.8577 5.31184 11.9962 5.5222 12.1707 5.69939C12.3452 5.87658 12.5524 6.01714 12.7804 6.11303C13.0084 6.20893 13.2528 6.25828 13.4996 6.25828C13.9981 6.25828 14.4761 6.05724 14.8286 5.69939C15.181 5.34154 15.379 4.85618 15.379 4.3501C15.379 3.84402 15.181 3.35866 14.8286 3.00081C14.4761 2.64296 13.9981 2.44192 13.4996 2.44192ZM19.1492 5.3061C19.1492 4.92947 19.2222 4.55653 19.3642 4.20856C19.5061 3.8606 19.7142 3.54443 19.9765 3.27811C20.2388 3.01179 20.5502 2.80054 20.8929 2.65641C21.2357 2.51227 21.603 2.43809 21.9739 2.43809C22.3449 2.43809 22.7122 2.51227 23.0549 2.65641C23.3976 2.80054 23.709 3.01179 23.9713 3.27811C24.2336 3.54443 24.4417 3.8606 24.5837 4.20856C24.7256 4.55653 24.7987 4.92947 24.7987 5.3061C24.7987 6.06675 24.5011 6.79624 23.9713 7.3341C23.4416 7.87195 22.7231 8.17412 21.9739 8.17412C21.2248 8.17412 20.5063 7.87195 19.9765 7.3341C19.4468 6.79624 19.1492 6.06675 19.1492 5.3061ZM21.9739 4.3501C21.7242 4.3501 21.4847 4.45082 21.3081 4.63011C21.1315 4.80939 21.0323 5.05256 21.0323 5.3061C21.0323 5.55965 21.1315 5.80282 21.3081 5.9821C21.4847 6.16139 21.7242 6.26211 21.9739 6.26211C22.2236 6.26211 22.4631 6.16139 22.6397 5.9821C22.8163 5.80282 22.9155 5.55965 22.9155 5.3061C22.9155 5.05256 22.8163 4.80939 22.6397 4.63011C22.4631 4.45082 22.2236 4.3501 21.9739 4.3501ZM5.02533 2.43809C4.27615 2.43809 3.55766 2.74026 3.02792 3.27811C2.49817 3.81597 2.20056 4.54546 2.20056 5.3061C2.20056 6.06675 2.49817 6.79624 3.02792 7.3341C3.55766 7.87195 4.27615 8.17412 5.02533 8.17412C5.7745 8.17412 6.49299 7.87195 7.02274 7.3341C7.55249 6.79624 7.85009 6.06675 7.85009 5.3061C7.85009 4.54546 7.55249 3.81597 7.02274 3.27811C6.49299 2.74026 5.7745 2.43809 5.02533 2.43809ZM4.08374 5.3061C4.08374 5.05256 4.18294 4.80939 4.35952 4.63011C4.53611 4.45082 4.7756 4.3501 5.02533 4.3501C5.27505 4.3501 5.51455 4.45082 5.69113 4.63011C5.86771 4.80939 5.96692 5.05256 5.96692 5.3061C5.96692 5.55965 5.86771 5.80282 5.69113 5.9821C5.51455 6.16139 5.27505 6.26211 5.02533 6.26211C4.7756 6.26211 4.53611 6.16139 4.35952 5.9821C4.18294 5.80282 4.08374 5.55965 4.08374 5.3061ZM6.47161 10.0861C6.14018 10.6671 5.96605 11.3268 5.96692 11.9981H2.20056V16.7782C2.20041 17.2537 2.31674 17.7219 2.53909 18.1405C2.76144 18.5591 3.08283 18.915 3.47432 19.1761C3.86581 19.4372 4.31511 19.5954 4.78179 19.6364C5.24846 19.6774 5.71785 19.6 6.1477 19.411C6.28706 20.0439 6.5055 20.6481 6.78798 21.2121C6.07325 21.5051 5.29859 21.6155 4.53204 21.5335C3.76549 21.4515 3.03049 21.1796 2.39159 20.7418C1.7527 20.304 1.22944 19.7136 0.867785 19.0225C0.506126 18.3314 0.317127 17.5607 0.317383 16.7782V11.9981C0.317383 11.491 0.515789 11.0047 0.868953 10.6461C1.22212 10.2876 1.70111 10.0861 2.20056 10.0861H6.47161ZM20.2113 21.2121C20.926 21.5051 21.7007 21.6155 22.4672 21.5335C23.2338 21.4515 23.9688 21.1796 24.6077 20.7418C25.2466 20.304 25.7698 19.7136 26.1315 19.0225C26.4931 18.3314 26.6821 17.5607 26.6819 16.7782V11.9981C26.6819 11.491 26.4835 11.0047 26.1303 10.6461C25.7771 10.2876 25.2981 10.0861 24.7987 10.0861H20.5276C20.8478 10.6483 21.0323 11.3003 21.0323 11.9981H24.7987V16.7782C24.7988 17.2537 24.6825 17.7219 24.4602 18.1405C24.2378 18.5591 23.9164 18.915 23.5249 19.1761C23.1334 19.4372 22.6841 19.5954 22.2175 19.6364C21.7508 19.6774 21.2814 19.6 20.8516 19.411C20.7103 20.0439 20.4937 20.6481 20.2113 21.2121ZM9.73327 10.0842C9.23382 10.0842 8.75483 10.2857 8.40166 10.6442C8.0485 11.0028 7.85009 11.4891 7.85009 11.9962V17.7342C7.85009 19.2554 8.44531 20.7144 9.5048 21.7901C10.5643 22.8659 12.0013 23.4702 13.4996 23.4702C14.998 23.4702 16.435 22.8659 17.4944 21.7901C18.5539 20.7144 19.1492 19.2554 19.1492 17.7342V11.9981C19.1492 11.491 18.9508 11.0047 18.5976 10.6461C18.2444 10.2876 17.7654 10.0861 17.266 10.0861H9.73327V10.0842ZM9.73327 11.9962H17.266V17.7342C17.266 18.7484 16.8692 19.721 16.1628 20.4381C15.4565 21.1553 14.4985 21.5582 13.4996 21.5582C12.5007 21.5582 11.5427 21.1553 10.8364 20.4381C10.1301 19.721 9.73327 18.7484 9.73327 17.7342V11.9981V11.9962Z" fill="black"/>
</svg>
