<svg width="16" height="16" viewBox="0 0 16 16" fill="none" xmlns="http://www.w3.org/2000/svg">
<path d="M14.3307 7.47692H16C15.9491 6.6212 15.7608 5.77928 15.4425 4.9835L13.9768 5.83079C14.1638 6.35137 14.2865 6.90286 14.3307 7.47692ZM11.4237 0.727804C10.6125 0.341011 9.74152 0.0951819 8.84799 0.000835611V1.68958C9.44823 1.76801 10.0341 1.93264 10.5874 2.1784L11.4237 0.727804ZM13.2106 4.34343L14.6637 3.50366C14.1682 2.77196 13.5557 2.12689 12.8509 1.59432L12.0113 3.04993C12.4691 3.4233 12.8727 3.85865 13.2106 4.34343ZM8.01252 14.328C6.33019 14.328 4.71676 13.6589 3.52717 12.4679C2.33758 11.277 1.66927 9.6617 1.66927 7.97744C1.66927 4.75371 4.07053 2.09818 7.17872 1.68874V0C3.14491 0.417798 4.34792e-08 3.82954 4.34792e-08 7.97744C-0.000109583 9.03101 0.207087 10.0743 0.609757 11.0477C1.01243 12.0211 1.60268 12.9055 2.34681 13.6505C3.09094 14.3955 3.97437 14.9864 4.94665 15.3895C5.91892 15.7927 6.961 16.0001 8.01336 16C12.0396 16 15.364 13.0228 15.9307 9.14811H14.2439C13.6947 12.0953 11.1157 14.328 8.01252 14.328Z" fill="black"/>
</svg>
