<svg width="15" height="15" viewBox="0 0 15 15" fill="none" xmlns="http://www.w3.org/2000/svg">
<path d="M10.5391 2.84132L12.1588 4.46024L10.5391 2.84132ZM11.5807 1.41511L7.20111 5.79468C6.97482 6.02066 6.82048 6.30856 6.75757 6.62211L6.35303 8.6471L8.37802 8.2418C8.69155 8.17909 8.97909 8.02538 9.20545 7.79902L13.585 3.41945C13.7166 3.28785 13.821 3.13161 13.8923 2.95965C13.9635 2.7877 14.0001 2.6034 14.0001 2.41728C14.0001 2.23116 13.9635 2.04686 13.8923 1.87491C13.821 1.70296 13.7166 1.54672 13.585 1.41511C13.4534 1.28351 13.2972 1.17911 13.1252 1.10788C12.9533 1.03666 12.769 1 12.5829 1C12.3967 1 12.2124 1.03666 12.0405 1.10788C11.8685 1.17911 11.7123 1.28351 11.5807 1.41511V1.41511Z" stroke="black" stroke-width="1.3" stroke-linecap="round" stroke-linejoin="round"/>
<path d="M12.4709 10.1765V12.4707C12.4709 12.8763 12.3097 13.2654 12.0229 13.5522C11.7361 13.839 11.347 14.0001 10.9414 14.0001H2.52945C2.12381 14.0001 1.73479 13.839 1.44796 13.5522C1.16114 13.2654 1 12.8763 1 12.4707V4.05874C1 3.65311 1.16114 3.26409 1.44796 2.97726C1.73479 2.69043 2.12381 2.5293 2.52945 2.5293H4.82362" stroke="black" stroke-width="1.3" stroke-linecap="round" stroke-linejoin="round"/>
</svg>
