<svg width="28" height="28" viewBox="0 0 28 28" fill="none" xmlns="http://www.w3.org/2000/svg">
<path d="M19.8685 8.13136C19.7536 8.01645 19.6091 7.93578 19.451 7.89838C19.2929 7.86098 19.1275 7.86833 18.9733 7.91961L11.0983 10.5446C10.9694 10.5876 10.8522 10.6601 10.756 10.7562C10.6599 10.8523 10.5875 10.9695 10.5445 11.0985L7.91945 18.9735C7.86804 19.1277 7.86058 19.2931 7.8979 19.4513C7.93523 19.6095 8.01588 19.7541 8.13079 19.869C8.24571 19.9839 8.39036 20.0646 8.54854 20.1019C8.70671 20.1392 8.87216 20.1318 9.02633 20.0804L16.9013 17.4554C17.0303 17.4124 17.1475 17.3399 17.2436 17.2438C17.3398 17.1477 17.4122 17.0305 17.4552 16.9015L20.0802 9.02649C20.1315 8.87234 20.1388 8.70695 20.1014 8.54886C20.064 8.39076 19.9834 8.2462 19.8685 8.13136ZM10.1332 17.8675L12.067 12.068L15.9336 15.9346L10.1332 17.8675Z" fill="black"/>
<path d="M14 26.25C11.5772 26.25 9.20877 25.5316 7.19427 24.1855C5.17977 22.8395 3.60965 20.9263 2.68248 18.6879C1.75531 16.4495 1.51272 13.9864 1.98539 11.6101C2.45805 9.23388 3.62475 7.05114 5.33795 5.33795C7.05114 3.62475 9.23388 2.45805 11.6101 1.98539C13.9864 1.51272 16.4495 1.75531 18.6879 2.68248C20.9263 3.60965 22.8395 5.17977 24.1855 7.19427C25.5316 9.20877 26.25 11.5772 26.25 14C26.2463 17.2478 24.9545 20.3615 22.658 22.658C20.3615 24.9545 17.2478 26.2463 14 26.25ZM14 3.50001C11.9233 3.50001 9.89323 4.11582 8.16652 5.26957C6.4398 6.42333 5.09399 8.06321 4.29927 9.98183C3.50455 11.9005 3.29662 14.0117 3.70176 16.0485C4.1069 18.0853 5.10693 19.9562 6.57538 21.4246C8.04384 22.8931 9.91476 23.8931 11.9516 24.2983C13.9884 24.7034 16.0996 24.4955 18.0182 23.7007C19.9368 22.906 21.5767 21.5602 22.7304 19.8335C23.8842 18.1068 24.5 16.0767 24.5 14C24.4968 11.2162 23.3895 8.54739 21.421 6.57896C19.4526 4.61054 16.7838 3.50325 14 3.50001Z" fill="black"/>
</svg>
