<svg width="26" height="26" viewBox="0 0 26 26" fill="none" xmlns="http://www.w3.org/2000/svg">
<g opacity="0.3" clip-path="url(#clip0_288_7065)">
<path d="M14.82 4.74286C14.2511 4.47336 13.6295 4.33356 13 4.33356C12.3705 4.33356 11.7489 4.47336 11.18 4.74286L0.619645 9.7457C0.425278 9.83739 0.262576 9.98483 0.152233 10.1692C0.041889 10.3537 -0.0111094 10.5667 -2.17351e-05 10.7814V17.3377C-2.17351e-05 17.625 0.114115 17.9006 0.317279 18.1037C0.520444 18.3069 0.795994 18.421 1.08331 18.421C1.37063 18.421 1.64618 18.3069 1.84934 18.1037C2.05251 17.9006 2.16665 17.625 2.16665 17.3377V12.4714L4.33331 13.546V19.5044C4.33334 19.6469 4.36149 19.788 4.41614 19.9196C4.4708 20.0512 4.55088 20.1708 4.65181 20.2714L4.70598 20.3234L4.83598 20.4425C5.51503 21.0477 6.2491 21.5881 7.02865 22.0567C8.47598 22.9277 10.5668 23.8377 13 23.8377C15.4331 23.8377 17.524 22.9277 18.9735 22.0567C19.753 21.5881 20.4871 21.0477 21.1661 20.4425L21.2961 20.3234L21.346 20.2714H21.3503C21.4511 20.1703 21.5309 20.0503 21.5852 19.9183C21.6395 19.7863 21.6672 19.6449 21.6666 19.5022V13.5439L25.3976 11.6935C25.58 11.6032 25.7333 11.4633 25.8398 11.2899C25.9464 11.1165 26.002 10.9166 26.0002 10.7131C25.9983 10.5096 25.9392 10.3107 25.8296 10.1392C25.72 9.96773 25.5643 9.8306 25.3803 9.74353L14.82 4.7407V4.74286ZM14.8893 16.9087L19.5 14.6207V19.0234C18.986 19.4593 18.4375 19.8528 17.8598 20.1999C16.6031 20.9539 14.9001 21.671 13 21.671C11.0998 21.671 9.39898 20.956 8.14015 20.1999C7.56246 19.8528 7.01394 19.4593 6.49998 19.0234V14.6207L11.1106 16.9087C12.3023 17.498 13.6976 17.498 14.8893 16.9087ZM13.8926 6.70153L22.4336 10.7467L13.9251 14.9674C13.6375 15.1098 13.3209 15.1839 13 15.1839C12.679 15.1839 12.3624 15.1098 12.0748 14.9674L3.56631 10.7467L12.1073 6.70153C12.3863 6.5693 12.6912 6.5007 13 6.5007C13.3087 6.5007 13.6136 6.5693 13.8926 6.70153ZM21.346 20.2735L21.3438 20.2757L21.346 20.2735Z" fill="black"/>
</g>
<defs>
<clipPath id="clip0_288_7065">
<rect width="26" height="26" fill="white"/>
</clipPath>
</defs>
</svg>
