<svg width="14" height="17" viewBox="0 0 14 17" fill="none" xmlns="http://www.w3.org/2000/svg">
<path d="M11.3203 4.61719V2H13C13.0859 2 13.1562 1.92969 13.1562 1.84375V0.75C13.1562 0.664062 13.0859 0.59375 13 0.59375H0.65625C0.570312 0.59375 0.5 0.664062 0.5 0.75V1.84375C0.5 1.92969 0.570312 2 0.65625 2H2.33594V4.61719C2.33594 6.20898 3.16406 7.60938 4.41406 8.40625C3.16406 9.20312 2.33594 10.6035 2.33594 12.1953V14.8125H0.65625C0.570312 14.8125 0.5 14.8828 0.5 14.9688V16.0625C0.5 16.1484 0.570312 16.2188 0.65625 16.2188H13C13.0859 16.2188 13.1562 16.1484 13.1562 16.0625V14.9688C13.1562 14.8828 13.0859 14.8125 13 14.8125H11.3203V12.1953C11.3203 10.6035 10.4922 9.20312 9.24219 8.40625C10.4922 7.60938 11.3203 6.20898 11.3203 4.61719ZM9.91406 12.1953V14.8125H3.74219V12.1953C3.74219 11.3711 4.0625 10.5957 4.64648 10.0137C5.22852 9.42969 6.00391 9.10938 6.82812 9.10938C7.65234 9.10938 8.42773 9.42969 9.00977 10.0137C9.59375 10.5957 9.91406 11.3711 9.91406 12.1953ZM9.91406 4.61719C9.91406 5.44141 9.59375 6.2168 9.00977 6.79883C8.42773 7.38281 7.65234 7.70312 6.82812 7.70312C6.00391 7.70312 5.22852 7.38281 4.64648 6.79883C4.35871 6.51325 4.13057 6.17332 3.97533 5.79879C3.82008 5.42426 3.74084 5.02261 3.74219 4.61719V2H9.91406V4.61719Z" fill="black"/>
</svg>
