<svg width="23" height="18" viewBox="0 0 23 18" fill="none" xmlns="http://www.w3.org/2000/svg">
<path d="M1.5 3C1.5 2.46957 1.71071 1.96086 2.08579 1.58579C2.46086 1.21071 2.96957 1 3.5 1H19.5C20.0304 1 20.5391 1.21071 20.9142 1.58579C21.2893 1.96086 21.5 2.46957 21.5 3V15C21.5 15.5304 21.2893 16.0391 20.9142 16.4142C20.5391 16.7893 20.0304 17 19.5 17H3.5C2.96957 17 2.46086 16.7893 2.08579 16.4142C1.71071 16.0391 1.5 15.5304 1.5 15V3Z" stroke="black" stroke-width="2" stroke-linecap="round" stroke-linejoin="round"/>
<path d="M1.5 5L9.001 11.001C9.71029 11.5685 10.5916 11.8777 11.5 11.8777C12.4084 11.8777 13.2897 11.5685 13.999 11.001L21.5 5" stroke="black" stroke-width="2" stroke-linejoin="round"/>
</svg>
