<svg width="18" height="18" viewBox="0 0 18 18" fill="none" xmlns="http://www.w3.org/2000/svg">
<path d="M9 0.25C4.16797 0.25 0.25 4.16797 0.25 9C0.25 13.832 4.16797 17.75 9 17.75C13.832 17.75 17.75 13.832 17.75 9C17.75 4.16797 13.832 0.25 9 0.25ZM9 16.2656C4.98828 16.2656 1.73438 13.0117 1.73438 9C1.73438 4.98828 4.98828 1.73438 9 1.73438C13.0117 1.73438 16.2656 4.98828 16.2656 9C16.2656 13.0117 13.0117 16.2656 9 16.2656Z" fill="black"/>
<path d="M13.0508 8.74807L7.26758 4.54885C7.2212 4.51485 7.16629 4.4944 7.10896 4.48978C7.05164 4.48515 6.99416 4.49653 6.94292 4.52266C6.89169 4.54878 6.84871 4.58862 6.81879 4.63773C6.78886 4.68684 6.77317 4.7433 6.77344 4.80081V13.1992C6.77344 13.4551 7.0625 13.5996 7.26758 13.4512L13.0508 9.25198C13.0907 9.22321 13.1232 9.18536 13.1457 9.14155C13.1681 9.09775 13.1798 9.04924 13.1798 9.00003C13.1798 8.95081 13.1681 8.9023 13.1457 8.8585C13.1232 8.81469 13.0907 8.77684 13.0508 8.74807ZM8.01953 11.3653V6.63479L11.2754 9.00003L8.01953 11.3653Z" fill="black"/>
</svg>
