<svg width="34" height="34" viewBox="0 0 34 34" fill="none" xmlns="http://www.w3.org/2000/svg">
<path d="M30.3878 20.5595L28.2356 18.7195C28.3374 18.0952 28.39 17.4577 28.39 16.8203C28.39 16.1828 28.3374 15.5453 28.2356 14.921L30.3878 13.081C30.5501 12.942 30.6663 12.7569 30.7209 12.5503C30.7755 12.3437 30.7659 12.1254 30.6934 11.9243L30.6638 11.8389C30.0713 10.1829 29.1841 8.64781 28.045 7.30773L27.9858 7.23873C27.8477 7.07625 27.6635 6.95945 27.4576 6.90373C27.2517 6.848 27.0338 6.85597 26.8325 6.92657L24.1611 7.87618C23.1754 7.06786 22.0746 6.43041 20.8851 5.98353L20.3692 3.19057C20.3303 2.98041 20.2284 2.78707 20.077 2.63624C19.9255 2.4854 19.7318 2.38421 19.5215 2.3461L19.4328 2.32967C17.7209 2.02081 15.9202 2.02081 14.2083 2.32967L14.1196 2.3461C13.9093 2.38421 13.7155 2.4854 13.5641 2.63624C13.4127 2.78707 13.3107 2.98041 13.2718 3.19057L12.7527 5.99668C11.5727 6.44365 10.4738 7.08076 9.49967 7.88275L6.80856 6.92657C6.60735 6.85541 6.38926 6.84716 6.18325 6.90291C5.97724 6.95867 5.79308 7.0758 5.65523 7.23873L5.59608 7.30773C4.45835 8.64876 3.57127 10.1836 2.97726 11.8389L2.94769 11.9243C2.79983 12.3351 2.9214 12.7951 3.25328 13.081L5.43179 14.9407C5.32993 15.5585 5.28064 16.1894 5.28064 16.817C5.28064 17.4478 5.32993 18.0787 5.43179 18.6932L3.25328 20.553C3.09094 20.6919 2.97476 20.877 2.92017 21.0836C2.86558 21.2902 2.87518 21.5086 2.94769 21.7096L2.97726 21.795C3.572 23.4511 4.45261 24.979 5.59608 26.3262L5.65523 26.3952C5.79341 26.5577 5.97758 26.6745 6.18347 26.7302C6.38935 26.7859 6.60729 26.778 6.80856 26.7074L9.49967 25.7512C10.4788 26.5562 11.573 27.1937 12.7527 27.6373L13.2718 30.4434C13.3107 30.6535 13.4127 30.8469 13.5641 30.9977C13.7155 31.1485 13.9093 31.2497 14.1196 31.2878L14.2083 31.3043C15.9359 31.6148 17.7051 31.6148 19.4328 31.3043L19.5215 31.2878C19.7318 31.2497 19.9255 31.1485 20.077 30.9977C20.2284 30.8469 20.3303 30.6535 20.3692 30.4434L20.8851 27.6504C22.0741 27.2047 23.1811 26.5652 24.1611 25.7578L26.8325 26.7074C27.0337 26.7785 27.2518 26.7868 27.4578 26.731C27.6638 26.6753 27.848 26.5581 27.9858 26.3952L28.045 26.3262C29.1885 24.9757 30.0691 23.4511 30.6638 21.795L30.6934 21.7096C30.8412 21.3054 30.7197 20.8454 30.3878 20.5595ZM25.9026 15.3088C25.9848 15.8049 26.0275 16.3142 26.0275 16.8235C26.0275 17.3328 25.9848 17.8421 25.9026 18.3383L25.6857 19.6559L28.1403 21.7556C27.7682 22.6128 27.2985 23.4243 26.7405 24.174L23.6912 23.0929L22.6595 23.9407C21.8742 24.5847 21.0001 25.0907 20.0538 25.4456L18.8019 25.9155L18.2137 29.1027C17.2857 29.2079 16.3488 29.2079 15.4208 29.1027L14.8326 25.9089L13.5905 25.4325C12.6541 25.0776 11.7833 24.5716 11.0046 23.9308L9.97283 23.0798L6.90385 24.1707C6.34526 23.4182 5.87867 22.6066 5.50408 21.7523L7.98489 19.6329L7.77131 18.3186C7.69245 17.829 7.64974 17.323 7.64974 16.8235C7.64974 16.3208 7.68917 15.8181 7.77131 15.3285L7.98489 14.0141L5.50408 11.8948C5.87538 11.0372 6.34526 10.2288 6.90385 9.47639L9.97283 10.5673L11.0046 9.71626C11.7833 9.07552 12.6541 8.56949 13.5905 8.21462L14.8359 7.74475L15.424 4.55091C16.3474 4.44576 17.2904 4.44576 18.217 4.55091L18.8052 7.73818L20.0571 8.20805C21.0001 8.56292 21.8774 9.06894 22.6628 9.71297L23.6945 10.5607L26.7438 9.47967C27.3024 10.2321 27.769 11.0437 28.1436 11.8981L25.689 13.9977L25.9026 15.3088ZM16.8238 10.7119C13.63 10.7119 11.0407 13.3011 11.0407 16.495C11.0407 19.6888 13.63 22.278 16.8238 22.278C20.0177 22.278 22.6069 19.6888 22.6069 16.495C22.6069 13.3011 20.0177 10.7119 16.8238 10.7119ZM19.4262 19.0973C19.0849 19.4397 18.6792 19.7111 18.2326 19.8961C17.786 20.081 17.3072 20.1759 16.8238 20.1751C15.8413 20.1751 14.918 19.7907 14.2214 19.0973C13.8791 18.756 13.6077 18.3504 13.4227 17.9038C13.2378 17.4571 13.1429 16.9784 13.1437 16.495C13.1437 15.5125 13.5281 14.5892 14.2214 13.8926C14.918 13.196 15.8413 12.8148 16.8238 12.8148C17.8063 12.8148 18.7296 13.196 19.4262 13.8926C19.7685 14.2339 20.04 14.6395 20.2249 15.0862C20.4099 15.5328 20.5047 16.0116 20.504 16.495C20.504 17.4774 20.1195 18.4007 19.4262 19.0973Z" fill="black"/>
</svg>
