<svg width="19" height="19" viewBox="0 0 19 19" fill="none" xmlns="http://www.w3.org/2000/svg">
<path d="M18.2742 3.32096L9.83221 0.552065C9.61502 0.482645 9.38107 0.482645 9.16388 0.552065L0.739422 3.31231H0.721835L0.677866 3.32961L0.625103 3.35557L0.563547 3.38153L0.528371 3.39884L0.475609 3.43345L0.449227 3.45075L0.396464 3.48536C0.396464 3.48995 0.394612 3.49436 0.391313 3.4976C0.388015 3.50085 0.383541 3.50267 0.378877 3.50267L0.31732 3.55459C0.31732 3.55688 0.316394 3.55908 0.314745 3.56071C0.313096 3.56233 0.310859 3.56324 0.308527 3.56324L0.24697 3.63246L0.229382 3.65842C0.220198 3.66422 0.212333 3.67183 0.206279 3.68076C0.200226 3.6897 0.196116 3.69976 0.194207 3.71034L0.167826 3.7363L0.141444 3.77956C0.132651 3.79687 0.123857 3.80552 0.123857 3.81417L0.0974755 3.86609L0.0798878 3.9007L0.0535065 3.97857C0.0475522 3.98916 0.0445202 4.00109 0.0447127 4.01319C0.0349372 4.03207 0.028965 4.05264 0.027125 4.07375C0.027125 4.08241 0.0183314 4.09971 0.0183314 4.10837C0.0183314 4.11702 0.00953753 4.15163 0.00953753 4.16894V4.20355C0.00142866 4.23754 -0.00153459 4.27253 0.000743701 4.30738V11.2296C0.000743701 11.505 0.111922 11.7691 0.309821 11.9638C0.50772 12.1586 0.776128 12.268 1.056 12.268C1.33587 12.268 1.60428 12.1586 1.80218 11.9638C2.00008 11.7691 2.11125 11.505 2.11125 11.2296V5.74375L4.19538 6.43597C3.55194 7.64883 3.35886 9.04461 3.64943 10.3826C3.94 11.7205 4.69602 12.9167 5.78706 13.7649C4.29427 14.4482 3.02668 15.5306 2.12884 16.8886C2.05262 17.0028 2.00001 17.1306 1.97401 17.2648C1.94801 17.399 1.94912 17.5369 1.9773 17.6707C2.00547 17.8045 2.06014 17.9315 2.1382 18.0445C2.21626 18.1575 2.31617 18.2542 2.43223 18.3292C2.54829 18.4042 2.67822 18.456 2.81461 18.4816C2.95101 18.5072 3.09118 18.5061 3.22714 18.4784C3.3631 18.4506 3.49219 18.3968 3.60702 18.32C3.72185 18.2432 3.82018 18.1449 3.89639 18.0307C4.50191 17.1111 5.33166 16.3551 6.31006 15.8317C7.28846 15.3083 8.3844 15.0342 9.49804 15.0342C10.6117 15.0342 11.7076 15.3083 12.686 15.8317C13.6644 16.3551 14.4942 17.1111 15.0997 18.0307C15.197 18.1747 15.329 18.2928 15.484 18.3743C15.639 18.4558 15.8121 18.4983 15.9879 18.498C16.1905 18.4983 16.3889 18.4412 16.5595 18.3336C16.7944 18.1816 16.9586 17.9443 17.0163 17.6735C17.0739 17.4028 17.0204 17.1206 16.8672 16.8886C15.9694 15.5306 14.7018 14.4482 13.209 13.7649C14.3001 12.9167 15.0561 11.7205 15.3467 10.3826C15.6372 9.04461 15.4441 7.64883 14.8007 6.43597L18.2742 5.2938C18.4854 5.22552 18.6692 5.0934 18.7995 4.91627C18.9298 4.73914 19 4.52605 19 4.30738C19 4.08871 18.9298 3.87562 18.7995 3.69849C18.6692 3.52136 18.4854 3.38924 18.2742 3.32096ZM9.49804 2.62874L14.6072 4.30738L12.7781 4.90442L9.49804 5.98602L6.21796 4.90442L4.38885 4.30738L9.49804 2.62874ZM13.3673 9.15295C13.3667 9.74385 13.2263 10.3265 12.9573 10.8548C12.6882 11.3831 12.2979 11.8425 11.8172 12.1966C11.3365 12.5508 10.7787 12.79 10.1878 12.8954C9.59684 13.0007 8.98913 12.9692 8.41271 12.8035C7.8363 12.6377 7.307 12.3423 6.86672 11.9404C6.42644 11.5386 6.08726 11.0414 5.87603 10.4883C5.6648 9.93513 5.58732 9.34121 5.64972 8.75351C5.71212 8.16581 5.91268 7.60047 6.23554 7.10224L9.16388 8.0627C9.38107 8.13212 9.61502 8.13212 9.83221 8.0627L12.7605 7.10224C13.1589 7.71423 13.3695 8.42621 13.3673 9.15295Z" fill="black"/>
</svg>
