<svg width="34" height="34" viewBox="0 0 34 34" fill="none" xmlns="http://www.w3.org/2000/svg">
<path d="M25.6396 6L25.6396 11.0101L31 9.56772V17.3104C31 22.3154 27.2084 29.8882 17.1124 29.9988L17.112 30L17.0005 29.9997L16.888 30L16.995 29.9991L16.806 29.9977C6.87255 29.8488 3.07683 22.4536 3.00116 17.4624L3 17.3104V9.56772L8.48796 11.0444L8.488 6.00394L17.0592 9.66736L25.6396 6ZM28.536 12.9269L25.6396 13.7063L25.6396 17.3143C25.6396 22.3356 21.8213 26.4112 17.0961 26.4525L17.0959 26.4566L16.963 26.4556C12.3168 26.3765 8.56448 22.3969 8.48915 17.4693L8.488 17.3182L8.48796 13.7407L5.464 12.9269V17.3104L5.4649 17.4262L5.46633 17.4952C5.51744 19.5677 6.38885 21.8967 7.94857 23.6946L8.00525 23.7594C9.96604 25.9797 12.8576 27.2992 16.7234 27.3824L16.8407 27.3844L17.0114 27.3857L17.0113 27.3862L17.0869 27.3855C21.0343 27.3422 23.9817 26.0253 25.9737 23.7831L26.0338 23.7149C27.6352 21.8796 28.5154 19.482 28.5356 17.3843L28.536 17.3104V12.9269ZM23.1756 9.87075L17.0593 12.485L10.9519 9.87467V17.297L10.9529 17.4312L10.9553 17.5335C11.0599 20.9702 13.6693 23.7298 16.9032 23.8399L16.9234 23.8404L17.0757 23.8392C20.4174 23.8099 23.121 20.9554 23.1748 17.4216L23.1756 17.3143V9.87075Z" fill="black"/>
</svg>
