<svg width="14" height="16" viewBox="0 0 14 16" fill="none" xmlns="http://www.w3.org/2000/svg">
<path d="M11.8223 1.37988C9.98244 -0.459961 6.98635 -0.459961 5.14846 1.37988L0.0507994 6.47363C0.0175963 6.50684 1.80564e-05 6.55176 1.80564e-05 6.59863C1.80564e-05 6.64551 0.0175963 6.69043 0.0507994 6.72363L0.771502 7.44434C0.804445 7.47713 0.849039 7.49555 0.895526 7.49555C0.942012 7.49555 0.986606 7.47713 1.01955 7.44434L6.11721 2.35059C6.75002 1.71777 7.59181 1.37012 8.48635 1.37012C9.38088 1.37012 10.2227 1.71777 10.8535 2.35059C11.4863 2.9834 11.834 3.8252 11.834 4.71777C11.834 5.6123 11.4863 6.45215 10.8535 7.08496L5.65822 12.2783L4.81642 13.1201C4.02931 13.9072 2.75002 13.9072 1.96291 13.1201C1.58205 12.7393 1.37306 12.2334 1.37306 11.6943C1.37306 11.1553 1.58205 10.6494 1.96291 10.2686L7.11721 5.11621C7.24806 4.9873 7.41994 4.91504 7.60353 4.91504H7.60549C7.78908 4.91504 7.959 4.9873 8.08791 5.11621C8.21877 5.24707 8.28908 5.41894 8.28908 5.60254C8.28908 5.78418 8.21681 5.95605 8.08791 6.08496L3.87502 10.2939C3.84181 10.3271 3.82424 10.3721 3.82424 10.4189C3.82424 10.4658 3.84181 10.5107 3.87502 10.5439L4.59572 11.2646C4.62866 11.2974 4.67326 11.3159 4.71974 11.3159C4.76623 11.3159 4.81082 11.2974 4.84377 11.2646L9.0547 7.05371C9.44338 6.66504 9.65627 6.14941 9.65627 5.60059C9.65627 5.05176 9.44142 4.53418 9.0547 4.14746C8.25197 3.34473 6.94728 3.34668 6.14455 4.14746L5.64455 4.64941L0.992206 9.2998C0.676445 9.61371 0.426148 9.98718 0.255829 10.3986C0.0855104 10.8099 -0.00144076 11.251 1.80564e-05 11.6963C1.80564e-05 12.6006 0.353534 13.4502 0.992206 14.0889C1.65431 14.749 2.5215 15.0791 3.38869 15.0791C4.25588 15.0791 5.12306 14.749 5.78322 14.0889L11.8223 8.05371C12.711 7.16309 13.2031 5.97754 13.2031 4.71777C13.2051 3.45605 12.7129 2.27051 11.8223 1.37988Z" fill="black"/>
</svg>
