<svg width="17" height="17" viewBox="0 0 17 17" fill="none" xmlns="http://www.w3.org/2000/svg">
<g clip-path="url(#clip0_727_44402)">
<path d="M6.37484 14.1666H4.24984C3.49839 14.1666 2.77772 13.8681 2.24637 13.3368C1.71501 12.8054 1.4165 12.0847 1.4165 11.3333V4.95829C1.4165 4.20685 1.71501 3.48618 2.24637 2.95482C2.77772 2.42347 3.49839 2.12496 4.24984 2.12496H12.0415C12.793 2.12496 13.5136 2.42347 14.045 2.95482C14.5763 3.48618 14.8748 4.20685 14.8748 4.95829V7.08329M5.6665 1.41663V2.83329M10.6248 1.41663V2.83329M1.4165 5.66663H14.8748M13.104 11.0804L12.0415 12.1429" stroke="black" stroke-width="1.41667" stroke-linecap="round" stroke-linejoin="round"/>
<path d="M12.0417 15.5833C13.9977 15.5833 15.5833 13.9977 15.5833 12.0417C15.5833 10.0857 13.9977 8.5 12.0417 8.5C10.0857 8.5 8.5 10.0857 8.5 12.0417C8.5 13.9977 10.0857 15.5833 12.0417 15.5833Z" stroke="black" stroke-width="1.41667" stroke-linecap="round" stroke-linejoin="round"/>
</g>
<defs>
<clipPath id="clip0_727_44402">
<rect width="17" height="17" fill="white"/>
</clipPath>
</defs>
</svg>
