<svg width="24" height="24" viewBox="0 0 24 24" fill="none" xmlns="http://www.w3.org/2000/svg">
<path d="M20.3846 5.76923H17.022L16.2209 3.52418C16.1655 3.37055 16.0641 3.23776 15.9305 3.14394C15.7968 3.05013 15.6375 2.99986 15.4742 3H7.88846C7.55467 3 7.25549 3.21017 7.14423 3.52418L6.34066 5.76923H2.97802C1.88516 5.76923 1 6.6544 1 7.74725V19.022C1 20.1148 1.88516 21 2.97802 21H20.3846C21.4775 21 22.3626 20.1148 22.3626 19.022V7.74725C22.3626 6.6544 21.4775 5.76923 20.3846 5.76923ZM20.5824 19.022C20.5824 19.1308 20.4934 19.2198 20.3846 19.2198H2.97802C2.86923 19.2198 2.78022 19.1308 2.78022 19.022V7.74725C2.78022 7.63846 2.86923 7.54945 2.97802 7.54945H7.59423L8.01703 6.36758L8.58324 4.78022H14.7769L15.3431 6.36758L15.7659 7.54945H20.3846C20.4934 7.54945 20.5824 7.63846 20.5824 7.74725V19.022ZM11.6813 9.13187C9.4956 9.13187 7.72528 10.9022 7.72528 13.0879C7.72528 15.2736 9.4956 17.044 11.6813 17.044C13.867 17.044 15.6374 15.2736 15.6374 13.0879C15.6374 10.9022 13.867 9.13187 11.6813 9.13187ZM11.6813 15.4615C10.3709 15.4615 9.30769 14.3984 9.30769 13.0879C9.30769 11.7775 10.3709 10.7143 11.6813 10.7143C12.9918 10.7143 14.0549 11.7775 14.0549 13.0879C14.0549 14.3984 12.9918 15.4615 11.6813 15.4615Z" fill="black"/>
</svg>
