<svg width="17" height="15" viewBox="0 0 17 15" fill="none" xmlns="http://www.w3.org/2000/svg">
<path d="M16.3436 14.9999C16.2393 15.0013 16.1365 14.9763 16.0459 14.9275C15.9552 14.8786 15.8799 14.8078 15.8278 14.7222C15.0472 13.4616 13.9347 12.4148 12.599 11.6844C11.2634 10.9539 9.75057 10.5648 8.20865 10.5552V13.8888C8.20808 13.9985 8.17326 14.1055 8.1086 14.1965C8.04393 14.2874 7.95231 14.3582 7.84528 14.3999C7.73855 14.4425 7.62091 14.4541 7.50721 14.4333C7.39352 14.4125 7.28886 14.3603 7.20644 14.2832L0.173364 7.61614C0.118431 7.56449 0.0748294 7.50304 0.0450744 7.43534C0.0153194 7.36764 0 7.29502 0 7.22167C0 7.14833 0.0153194 7.07571 0.0450744 7.00801C0.0748294 6.9403 0.118431 6.87885 0.173364 6.8272L7.20644 0.160114C7.28886 0.0830212 7.39352 0.0307978 7.50721 0.0100331C7.62091 -0.0107317 7.73855 0.000892777 7.84528 0.0434396C7.95231 0.0851201 8.04393 0.155901 8.1086 0.246863C8.17326 0.337824 8.20808 0.444896 8.20865 0.554583V3.94924C10.6334 4.24448 12.8622 5.36542 14.4797 7.10314C16.0971 8.84087 16.9929 11.0768 17 13.3943C16.9986 13.7658 16.9732 14.1369 16.9238 14.5055C16.9092 14.6211 16.8566 14.7294 16.7735 14.8151C16.6904 14.9008 16.581 14.9597 16.4608 14.9833L16.3436 14.9999ZM7.91561 9.44404C9.41038 9.42369 10.892 9.71122 12.2581 10.2868C13.6241 10.8623 14.8421 11.7122 15.8278 12.7776C15.6515 10.7621 14.7234 8.87213 13.21 7.44667C11.6966 6.02122 9.69701 5.15355 7.56982 4.99931C7.42369 4.98679 7.28783 4.92278 7.18909 4.81991C7.09034 4.71704 7.03588 4.5828 7.03647 4.44372V1.89356L1.41587 7.22167L7.03647 12.5498V9.99963C7.03647 9.85228 7.09822 9.71096 7.20814 9.60677C7.31805 9.50257 7.46712 9.44404 7.62256 9.44404H7.93905H7.91561Z" fill="black"/>
</svg>
