<svg width="26" height="26" viewBox="0 0 26 26" fill="none" xmlns="http://www.w3.org/2000/svg">
<path d="M23.6488 12.6674L2.40952 2.01853C2.32319 1.97537 2.22417 1.96521 2.13022 1.98806C1.9144 2.04138 1.77983 2.25974 1.83315 2.4781L4.02183 11.4207C4.05483 11.5552 4.15386 11.6644 4.28589 11.7076L8.03608 12.9949L4.28843 14.2822C4.1564 14.3279 4.05737 14.4345 4.0269 14.5691L1.83315 23.5244C1.8103 23.6183 1.82046 23.7174 1.86362 23.8011C1.96265 24.0017 2.2064 24.083 2.40952 23.984L23.6488 13.3961C23.7275 13.358 23.791 13.292 23.8316 13.2158C23.9306 13.0127 23.8494 12.7689 23.6488 12.6674ZM4.33667 20.9802L5.61382 15.7599L13.1091 13.1879C13.1675 13.1676 13.2158 13.1219 13.2361 13.0609C13.2716 12.9543 13.2158 12.84 13.1091 12.8019L5.61382 10.2324L4.34175 5.0324L20.2871 13.0279L4.33667 20.9802Z" fill="black"/>
</svg>
